<svg xmlns="http://www.w3.org/2000/svg" xmlns:xlink="http://www.w3.org/1999/xlink" width="48" zoomAndPan="magnify" viewBox="0 0 36 36.000001" height="48" preserveAspectRatio="xMidYMid meet" version="1.0"><defs><g/><clipPath id="ae45d06697"><path d="M 0.488281 0 L 35.511719 0 L 35.511719 35.027344 L 0.488281 35.027344 Z M 0.488281 0 " clip-rule="nonzero"/></clipPath><clipPath id="c135c7069b"><rect x="0" width="32" y="0" height="25"/></clipPath></defs><g clip-path="url(#ae45d06697)"><path fill="#ffffff" d="M 0.488281 0 L 35.511719 0 L 35.511719 35.027344 L 0.488281 35.027344 Z M 0.488281 0 " fill-opacity="1" fill-rule="nonzero"/><path fill="#ffffff" d="M 0.488281 0 L 35.511719 0 L 35.511719 35.027344 L 0.488281 35.027344 Z M 0.488281 0 " fill-opacity="1" fill-rule="nonzero"/></g><g transform="matrix(1, 0, 0, 1, 3, 3)"><g clip-path="url(#c135c7069b)"><g fill="#000000" fill-opacity="1"><g transform="translate(1.516737, 18.891886)"><g><path d="M 1.21875 0.0625 C 1.113281 0.0625 1.03125 0.0195312 0.96875 -0.0625 C 0.90625 -0.15625 0.875 -0.265625 0.875 -0.390625 C 0.894531 -0.585938 0.9375 -0.707031 1 -0.75 C 1.070312 -0.789062 1.203125 -0.8125 1.390625 -0.8125 C 1.785156 -0.8125 2.078125 -0.882812 2.265625 -1.03125 C 2.453125 -1.175781 2.570312 -1.351562 2.625 -1.5625 C 2.675781 -1.769531 2.707031 -2.046875 2.71875 -2.390625 L 2.71875 -10.5 C 2.707031 -10.84375 2.675781 -11.117188 2.625 -11.328125 C 2.570312 -11.546875 2.453125 -11.722656 2.265625 -11.859375 C 2.078125 -12.003906 1.785156 -12.078125 1.390625 -12.078125 L 1.265625 -12.078125 C 1.128906 -12.078125 1.035156 -12.097656 0.984375 -12.140625 C 0.929688 -12.191406 0.894531 -12.3125 0.875 -12.5 C 0.875 -12.625 0.90625 -12.726562 0.96875 -12.8125 C 1.03125 -12.90625 1.113281 -12.953125 1.21875 -12.953125 C 2.125 -12.910156 2.9375 -12.890625 3.65625 -12.890625 L 10.078125 -12.890625 C 10.429688 -12.890625 10.609375 -12.726562 10.609375 -12.40625 L 10.671875 -9.546875 C 10.671875 -9.421875 10.609375 -9.320312 10.484375 -9.25 C 10.359375 -9.175781 10.234375 -9.140625 10.109375 -9.140625 C 9.953125 -9.140625 9.8125 -9.164062 9.6875 -9.21875 C 9.5625 -9.28125 9.492188 -9.375 9.484375 -9.5 C 9.367188 -10.164062 9.25 -10.671875 9.125 -11.015625 C 9 -11.367188 8.804688 -11.628906 8.546875 -11.796875 C 8.296875 -11.972656 7.941406 -12.066406 7.484375 -12.078125 L 4.734375 -12.078125 L 4.734375 -6.890625 L 8.4375 -6.890625 C 8.53125 -6.867188 8.601562 -6.8125 8.65625 -6.71875 C 8.71875 -6.632812 8.75 -6.535156 8.75 -6.421875 C 8.75 -6.304688 8.71875 -6.207031 8.65625 -6.125 C 8.601562 -6.050781 8.53125 -6.015625 8.4375 -6.015625 L 4.734375 -6.015625 L 4.734375 -2.140625 C 4.765625 -1.859375 4.800781 -1.628906 4.84375 -1.453125 C 4.882812 -1.285156 5.003906 -1.132812 5.203125 -1 C 5.410156 -0.863281 5.734375 -0.800781 6.171875 -0.8125 L 8.046875 -0.8125 C 8.523438 -0.832031 8.882812 -0.910156 9.125 -1.046875 C 9.375 -1.191406 9.570312 -1.414062 9.71875 -1.71875 C 9.863281 -2.019531 10.035156 -2.507812 10.234375 -3.1875 C 10.328125 -3.4375 10.5625 -3.53125 10.9375 -3.46875 C 11.070312 -3.445312 11.1875 -3.394531 11.28125 -3.3125 C 11.382812 -3.226562 11.429688 -3.125 11.421875 -3 L 11.015625 -0.421875 C 10.972656 -0.242188 10.910156 -0.128906 10.828125 -0.078125 C 10.742188 -0.0234375 10.609375 0 10.421875 0 L 3.671875 0 C 2.941406 0 2.125 0.0195312 1.21875 0.0625 Z M 1.21875 0.0625 "/></g></g></g><g fill="#000000" fill-opacity="1"><g transform="translate(13.653643, 18.891886)"><g/></g></g><g fill="#000000" fill-opacity="1"><g transform="translate(18.210087, 18.891886)"><g><path d="M 1.21875 0.0625 C 1.113281 0.0625 1.023438 0.0195312 0.953125 -0.0625 C 0.890625 -0.15625 0.859375 -0.265625 0.859375 -0.390625 C 0.867188 -0.585938 0.910156 -0.707031 0.984375 -0.75 C 1.066406 -0.789062 1.203125 -0.8125 1.390625 -0.8125 C 1.785156 -0.8125 2.078125 -0.882812 2.265625 -1.03125 C 2.453125 -1.175781 2.570312 -1.351562 2.625 -1.5625 C 2.675781 -1.769531 2.707031 -2.046875 2.71875 -2.390625 L 2.71875 -10.5 C 2.707031 -10.84375 2.675781 -11.117188 2.625 -11.328125 C 2.570312 -11.546875 2.453125 -11.722656 2.265625 -11.859375 C 2.078125 -12.003906 1.785156 -12.078125 1.390625 -12.078125 L 1.265625 -12.078125 C 1.128906 -12.078125 1.03125 -12.097656 0.96875 -12.140625 C 0.90625 -12.191406 0.867188 -12.3125 0.859375 -12.5 C 0.859375 -12.625 0.890625 -12.726562 0.953125 -12.8125 C 1.023438 -12.90625 1.113281 -12.953125 1.21875 -12.953125 C 2.101562 -12.910156 2.921875 -12.890625 3.671875 -12.890625 L 6.75 -12.890625 C 7.925781 -12.890625 9.070312 -12.644531 10.1875 -12.15625 C 11.300781 -11.664062 11.859375 -10.6875 11.859375 -9.21875 C 11.859375 -8.394531 11.609375 -7.660156 11.109375 -7.015625 C 10.617188 -6.378906 9.984375 -5.882812 9.203125 -5.53125 C 8.421875 -5.175781 7.609375 -5 6.765625 -5 C 5.984375 -5 5.300781 -5.109375 4.71875 -5.328125 L 4.71875 -2.390625 C 4.726562 -2.046875 4.757812 -1.769531 4.8125 -1.5625 C 4.863281 -1.351562 4.984375 -1.175781 5.171875 -1.03125 C 5.359375 -0.882812 5.648438 -0.8125 6.046875 -0.8125 L 6.171875 -0.8125 C 6.304688 -0.8125 6.40625 -0.785156 6.46875 -0.734375 C 6.53125 -0.691406 6.566406 -0.578125 6.578125 -0.390625 C 6.578125 -0.265625 6.546875 -0.15625 6.484375 -0.0625 C 6.421875 0.0195312 6.332031 0.0625 6.21875 0.0625 C 5.34375 0.0195312 4.488281 0 3.65625 0 C 2.914062 0 2.101562 0.0195312 1.21875 0.0625 Z M 6.171875 -5.921875 C 6.660156 -5.921875 7.164062 -6.019531 7.6875 -6.21875 C 8.21875 -6.414062 8.664062 -6.753906 9.03125 -7.234375 C 9.394531 -7.722656 9.578125 -8.363281 9.578125 -9.15625 C 9.578125 -10.351562 9.195312 -11.148438 8.4375 -11.546875 C 7.675781 -11.941406 6.867188 -12.140625 6.015625 -12.140625 C 5.660156 -12.140625 5.394531 -12.101562 5.21875 -12.03125 C 5.039062 -11.957031 4.910156 -11.8125 4.828125 -11.59375 C 4.753906 -11.375 4.71875 -11.03125 4.71875 -10.5625 L 4.71875 -6.15625 C 5.050781 -6 5.535156 -5.921875 6.171875 -5.921875 Z M 6.171875 -5.921875 "/></g></g></g></g></g><path stroke-linecap="butt" transform="matrix(0.72973, 0.000000000000000186, -0.000000000000000186, 0.72973, 7.822226, 27.875663)" fill="none" stroke-linejoin="miter" d="M -0.00262196 2.001117 L 27.897263 2.001117 " stroke="#aaa8ab" stroke-width="4" stroke-opacity="1" stroke-miterlimit="4"/></svg>