<?xml version="1.0" encoding="UTF-8"?>
<svg version="1.1" xmlns="http://www.w3.org/2000/svg" width="1254" height="692">
<path d="M0 0 C13.3966918 -0.06807439 26.79326664 -0.12298743 40.19009304 -0.15543652 C46.4123578 -0.17101904 52.63449695 -0.19212033 58.85668945 -0.22631836 C64.87379738 -0.25917811 70.89078534 -0.27690859 76.90797615 -0.28463173 C79.19100899 -0.29012784 81.47403609 -0.30085872 83.75701714 -0.31719017 C104.6171224 -0.46032999 126.93657703 -0.32891258 143 15 C150.87343208 23.45469217 153.61143112 32.38155159 153.47265625 43.73754883 C153.12259911 52.27875275 150.59956301 59.16637588 144.703125 65.46484375 C139.83123966 69.85624499 135.52825802 72.12832918 129 73 C131.10268034 76.08434935 133.2074043 79.16729875 135.3125 82.25 C136.20485352 83.55904297 136.20485352 83.55904297 137.11523438 84.89453125 C137.69208984 85.73886719 138.26894531 86.58320313 138.86328125 87.453125 C139.39219971 88.22817383 139.92111816 89.00322266 140.46606445 89.80175781 C141.50069716 91.28446239 142.57920583 92.73736812 143.69604492 94.15917969 C145 96 145 96 145 98 C150.94 98.33 156.88 98.66 163 99 C163 107.91 163 116.82 163 126 C116.71435229 129.68646752 116.71435229 129.68646752 108.14306641 123.82177734 C102.7298342 118.47060408 99.90402427 112.20858931 97.32617188 105.13574219 C95.47038309 100.74771731 92.7912342 97.24434295 89.8684082 93.50952148 C87.92951018 90.90532277 86.41095756 88.23143906 84.875 85.375 C82.55824387 81.9459839 81.54094451 81.12854127 77.44921875 80.15625 C73.12076693 79.78367755 73.12076693 79.78367755 67 80 C67.495 88.91 67.495 88.91 68 98 C72.95 98.33 77.9 98.66 83 99 C83 107.91 83 116.82 83 126 C57.26 126 31.52 126 5 126 C5 117.09 5 108.18 5 99 C9.95 98.505 9.95 98.505 15 98 C16.31747011 96.907817 16.31747011 96.907817 16.12025452 94.22227478 C16.11803391 92.98095291 16.11581329 91.73963104 16.11352539 90.46069336 C16.11367142 89.77779739 16.11381744 89.09490143 16.1139679 88.39131165 C16.11326876 86.12412386 16.1054764 83.85701726 16.09765625 81.58984375 C16.09579207 80.02185613 16.09436817 78.45386793 16.09336853 76.88587952 C16.08954334 72.75123497 16.07971306 68.61662534 16.06866455 64.48199463 C16.05845044 60.26599602 16.05387091 56.04999178 16.04882812 51.83398438 C16.03809078 43.55597174 16.02049399 35.27799423 16 27 C10.72 27 5.44 27 0 27 C0 18.09 0 9.18 0 0 Z M67 27 C67 36.9 67 46.8 67 57 C70.733125 57.0825 74.46625 57.165 78.3125 57.25 C80.04173706 57.30462402 80.04173706 57.30462402 81.8059082 57.36035156 C89.54099854 57.44194673 97.41457842 56.51304006 103.75170898 51.65795898 C107.04593204 48.13065134 108 44.73495991 108 40 C106.75736212 35.19513353 105.14713125 32.77696208 101.0625 30.125 C96.32050113 27.36568659 92.38702631 26.87555379 86.921875 26.90234375 C85.35324707 26.90609009 85.35324707 26.90609009 83.75292969 26.90991211 C81.77147949 26.92356812 81.77147949 26.92356812 79.75 26.9375 C75.5425 26.958125 71.335 26.97875 67 27 Z " fill="#002E55" transform="translate(919,259)"/>
<path d="M0 0 C11.7671627 10.78054988 18.24156932 25.89913033 19.0703125 41.66015625 C19.63010552 59.41289649 16.3529511 75.02121996 4.5625 88.875 C-10.5786729 104.82505025 -31.49995039 112.22141526 -53.2109375 112.890625 C-78.97344662 113.26316934 -102.41785229 108.79182631 -121.77734375 90.3515625 C-134.4664521 76.6802009 -139.02227628 59.48011997 -138.55859375 41.2890625 C-137.82467497 26.67768367 -131.69318865 12.42704473 -121.60546875 1.8125 C-89.11120226 -27.50239381 -33.56159152 -27.33697512 0 0 Z M-77.5 15.75 C-86.15845805 26.69693334 -86.09805682 41.69254467 -84.9765625 54.91015625 C-83.54537436 65.15800337 -80.69958418 74.94220019 -72.20703125 81.41796875 C-66.06137414 85.40467246 -59.38563061 85.41984104 -52.25 84.6875 C-46.56900112 83.19150363 -42.82303527 79.94729741 -39.56640625 75.12890625 C-31.80820458 60.74055004 -32.06947978 43.33360753 -35.25 27.6875 C-37.441208 20.50073982 -41.15778701 14.30829452 -47.6875 10.3125 C-57.98239036 5.66319467 -69.76918322 7.789555 -77.5 15.75 Z " fill="#002E55" transform="translate(1222.25,275.3125)"/>
<path d="M0 0 C2 1 2 1 3.5625 3.9375 C6.52354382 9.31820276 10.80430044 13.56639995 15 18 C15.54398437 18.59683594 16.08796875 19.19367188 16.6484375 19.80859375 C21.94129217 25.41042217 28.1576746 29.97121357 34.25830078 34.6472168 C36 36 36 36 37.83900452 38.0504303 C42.77596428 41.09534043 47.62639195 40.57018256 53.31762695 40.54589844 C54.56681412 40.55623611 55.81600128 40.56657379 57.1030426 40.57722473 C60.52025465 40.60163788 63.93665157 40.60849013 67.35389352 40.60750484 C70.92808381 40.61063656 74.50211162 40.63626008 78.07621765 40.65948486 C84.84049875 40.70002879 91.60468349 40.72038172 98.36906737 40.73345876 C106.07166244 40.74933431 113.77409364 40.78775221 121.47659361 40.82805204 C137.31770541 40.91042905 153.1587114 40.96155912 169 41 C169 52.55 169 64.1 169 76 C158.11 76 147.22 76 136 76 C135.67 73.69 135.34 71.38 135 69 C124.11 68.67 113.22 68.34 102 68 C102 75.59 102 83.18 102 91 C113.55 91 125.1 91 137 91 C137 99.25 137 107.5 137 116 C127.76 116.33 118.52 116.66 109 117 C110.72347656 118.711875 112.44695312 120.42375 114.22265625 122.1875 C115.91459885 123.8716144 117.60565447 125.55661473 119.29663086 127.24169922 C120.46042274 128.40050319 121.62511549 129.55840322 122.79077148 130.71533203 C129.08616909 136.96481726 135.27899622 143.21203038 141 150 C142.17414858 151.35558254 143.34995976 152.70972661 144.52734375 154.0625 C145.66426136 155.37482775 146.80098098 156.68732705 147.9375 158 C148.52595703 158.67933594 149.11441406 159.35867188 149.72070312 160.05859375 C151.14731355 161.70557489 152.57368301 163.35276474 154 165 C153.67 165.66 153.34 166.32 153 167 C148.61502873 164.25823563 145.15987357 161.35801131 141.55078125 157.60546875 C140.5269835 156.55635678 139.50288512 155.5075381 138.47851562 154.45898438 C136.89950829 152.83071689 135.32393123 151.19942193 133.75415039 149.56225586 C124.23695908 139.66407691 114.44234918 132.95068874 102 127 C102.495 133.435 102.495 133.435 103 140 C107.95 140 112.9 140 118 140 C118 148.91 118 157.82 118 167 C90.94 167 63.88 167 36 167 C36 158.09 36 149.18 36 140 C40.95 139.67 45.9 139.34 51 139 C52.98453626 123.10654012 52.98453626 123.10654012 49.90136719 108.00244141 C46.61431257 104.83497817 42.16888516 103.63071693 38 102 C35.71841232 100.38409444 33.70784758 98.55303889 31.6875 96.625 C30.33205078 95.37589844 30.33205078 95.37589844 28.94921875 94.1015625 C27 92 27 92 27 90 C30.465 89.505 30.465 89.505 34 89 C33.2265625 88.443125 32.453125 87.88625 31.65625 87.3125 C19.96971847 78.75009076 6.67492239 67.69968954 3 53 C5.97 53.66 8.94 54.32 12 55 C11.55269531 54.42894531 11.10539062 53.85789062 10.64453125 53.26953125 C1.00684387 40.34393346 -3.24484053 25.08716987 -2 9 C-1.48276639 5.93226964 -0.79061141 3.01420599 0 0 Z " fill="#002E55" transform="translate(328,218)"/>
<path d="M0 0 C17.54988579 -0.43810288 34.07867015 3.69720029 49.41015625 12.12109375 C49.74015625 9.15109375 50.07015625 6.18109375 50.41015625 3.12109375 C61.30015625 3.12109375 72.19015625 3.12109375 83.41015625 3.12109375 C83.41015625 15.99109375 83.41015625 28.86109375 83.41015625 42.12109375 C75.24265625 42.36859375 75.24265625 42.36859375 66.91015625 42.62109375 C65.20794922 42.69392578 63.50574219 42.76675781 61.75195312 42.84179688 C50.95496465 43.10977676 50.95496465 43.10977676 46.73339844 40.40795898 C44.8004944 38.40281185 43.1250508 36.31131233 41.41015625 34.12109375 C38.49666195 32.25308798 38.49666195 32.25308798 35.66015625 31.18359375 C34.7578125 30.80332031 33.85546875 30.42304688 32.92578125 30.03125 C23.94290859 26.78123551 11.64418025 26.36814861 2.66015625 29.87109375 C1.22154247 30.57808374 -0.19928462 31.32372949 -1.58984375 32.12109375 C-3.19859375 33.01828125 -3.19859375 33.01828125 -4.83984375 33.93359375 C-13.36575333 40.71556728 -17.19202901 48.51304428 -18.96484375 59.18359375 C-20.42082932 72.13146546 -19.09576757 86.45942357 -10.77734375 96.99609375 C-5.11295978 102.99949322 1.32150751 105.36646763 9.41015625 106.12109375 C17.43187713 106.12109375 24.32900388 104.71819071 31.16015625 100.37109375 C36.5135478 95.0177022 37.56174772 90.51472789 39.41015625 83.12109375 C30.50015625 83.12109375 21.59015625 83.12109375 12.41015625 83.12109375 C12.41015625 75.53109375 12.41015625 67.94109375 12.41015625 60.12109375 C37.16015625 60.12109375 61.91015625 60.12109375 87.41015625 60.12109375 C87.41015625 80.99998874 85.0951525 95.75475826 70.75 110.83984375 C51.20477333 129.89562401 25.79491441 131.69893426 -0.06640625 131.39453125 C-21.11333772 131.01446177 -41.04439033 124.70669367 -56.58984375 110.12109375 C-69.34774047 96.11205115 -73.33424673 80.47360429 -72.90234375 62.015625 C-72.06523452 44.25844544 -64.59937986 29.10584664 -51.58984375 17.12109375 C-48.0841269 14.42134565 -44.49288694 12.19824978 -40.58984375 10.12109375 C-39.74035156 9.6621875 -38.89085937 9.20328125 -38.015625 8.73046875 C-26.12210959 2.82815617 -13.15332773 0.61501231 0 0 Z " fill="#002E55" transform="translate(669.58984375,255.87890625)"/>
<path d="M0 0 C44.22 0 88.44 0 134 0 C134 11.55 134 23.1 134 35 C124.43 35 114.86 35 105 35 C104.505 31.535 104.505 31.535 104 28 C85.19 27.505 85.19 27.505 66 27 C66 34.59 66 42.18 66 50 C79.2 50 92.4 50 106 50 C106 58.25 106 66.5 106 75 C92.8 75 79.6 75 66 75 C66 82.92 66 90.84 66 99 C78.54 98.67 91.08 98.34 104 98 C104.33 95.69 104.66 93.38 105 91 C114.57 91 124.14 91 134 91 C134 102.55 134 114.1 134 126 C89.78 126 45.56 126 0 126 C0 117.09 0 108.18 0 99 C4.95 98.67 9.9 98.34 15 98 C15 74.9 15 51.8 15 28 C10.05 27.67 5.1 27.34 0 27 C0 18.09 0 9.18 0 0 Z " fill="#002E55" transform="translate(166,259)"/>
<path d="M0 0 C18.15 0 36.3 0 55 0 C63.91244546 21.08748255 72.76898007 42.1903124 81.41796875 63.38696289 C82.03900443 64.90773856 82.66009737 66.42849084 83.28125 67.94921875 C83.58015137 68.68207596 83.87905273 69.41493317 84.18701172 70.16999817 C85.84547782 74.22398626 87.53116945 78.26495345 89.24609375 82.29541016 C89.6169812 83.16817093 89.98786865 84.0409317 90.36999512 84.94013977 C91.08913983 86.62837412 91.81143113 88.31527242 92.53723145 90.00065613 C95 95.78045742 95 95.78045742 95 98 C101.93 98.495 101.93 98.495 109 99 C109 107.91 109 116.82 109 126 C84.58 126 60.16 126 35 126 C35 117.09 35 108.18 35 99 C38.63 98.67 42.26 98.34 46 98 C45.01 94.7 44.02 91.4 43 88 C27.82 87.67 12.64 87.34 -3 87 C-3.99 90.3 -4.98 93.6 -6 97 C-3.36476862 99.63523138 1.29171534 98.62917153 5 99 C5 107.91 5 116.82 5 126 C-14.47 126 -33.94 126 -54 126 C-54 117.09 -54 108.18 -54 99 C-47.565 98.505 -47.565 98.505 -41 98 C-38.25800396 95.64479206 -38.25800396 95.64479206 -37.1796875 92.140625 C-36.92323456 91.52068665 -36.66678162 90.90074829 -36.40255737 90.26202393 C-35.84870875 88.90713775 -35.31879182 87.54227666 -34.8104248 86.16967773 C-33.98079466 83.94858327 -33.07930064 81.77044764 -32.15332031 79.58789062 C-30.0777449 74.66784124 -28.10052395 69.71088134 -26.125 64.75 C-25.39523116 62.93025313 -24.66483146 61.11075914 -23.93383789 59.29150391 C-22.40710702 55.49053943 -20.88311428 51.68849348 -19.36083984 47.88574219 C-15.41486112 38.03733886 -11.4221221 28.20781171 -7.4375 18.375 C-4.983125 12.31125 -2.52875 6.2475 0 0 Z M19 33 C17.14633969 37.39561715 15.29498664 41.79219589 13.44580078 46.18969727 C12.81590688 47.68671149 12.18537422 49.18345711 11.55419922 50.67993164 C10.64904908 52.82628844 9.74617228 54.97358888 8.84375 57.12109375 C8.55939087 57.79401962 8.27503174 58.4669455 7.98205566 59.16026306 C6.59475578 61.98611589 6.59475578 61.98611589 6 65 C15.24 65 24.48 65 34 65 C30.02646321 54.14546047 25.73804247 43.5414436 21 33 C20.34 33 19.68 33 19 33 Z " fill="#002E55" transform="translate(806,259)"/>
<path d="M0 0 C27.06 0 54.12 0 82 0 C82 8.91 82 17.82 82 27 C77.05 27.33 72.1 27.66 67 28 C66.67 51.43 66.34 74.86 66 99 C76.89 98.67 87.78 98.34 99 98 C99.33 89.75 99.66 81.5 100 73 C110.89 73 121.78 73 133 73 C133 90.49 133 107.98 133 126 C89.11 126 45.22 126 0 126 C0 117.09 0 108.18 0 99 C3.61328125 98.77213542 7.2265625 98.54427083 10.83984375 98.31640625 C13.86023957 98.35080812 13.86023957 98.35080812 15 97 C15.09425595 94.85256451 15.11742648 92.70198974 15.11352539 90.55249023 C15.11367142 89.87934784 15.11381744 89.20620544 15.1139679 88.51266479 C15.11326878 86.27794216 15.10547652 84.0433019 15.09765625 81.80859375 C15.09579206 80.26302638 15.09436816 78.71745843 15.09336853 77.17189026 C15.0895434 73.09642923 15.07971317 69.02100363 15.06866455 64.94555664 C15.05845032 60.78988118 15.05387089 56.63420001 15.04882812 52.47851562 C15.03809089 44.31899232 15.02049414 36.15950464 15 28 C10.05 27.67 5.1 27.34 0 27 C0 18.09 0 9.18 0 0 Z " fill="#002E55" transform="translate(21,259)"/>
<path d="M0 0 C27.06 0 54.12 0 82 0 C82 8.91 82 17.82 82 27 C77.05 27.33 72.1 27.66 67 28 C67 51.1 67 74.2 67 98 C71.95 98.33 76.9 98.66 82 99 C82 107.91 82 116.82 82 126 C54.94 126 27.88 126 0 126 C0 117.09 0 108.18 0 99 C4.95 98.67 9.9 98.34 15 98 C15 74.9 15 51.8 15 28 C10.05 27.67 5.1 27.34 0 27 C0 18.09 0 9.18 0 0 Z " fill="#002E55" transform="translate(508,259)"/>
<path d="M0 0 C2 1 2 1 3.5625 3.9375 C6.52354382 9.31820276 10.80430044 13.56639995 15 18 C15.54398437 18.59683594 16.08796875 19.19367188 16.6484375 19.80859375 C20.84930952 24.25469434 25.63114405 27.9339907 30.45703125 31.66723633 C35.18240325 35.32777964 39.76828433 39.12275224 44.30615234 43.01245117 C47.72858688 45.94230221 51.21652601 48.76619026 54.75 51.5625 C63.78923848 58.94388688 73.35889814 68.61503949 77 80 C77.26831597 83.00899037 77.23298125 86.00068386 77.1953125 89.01953125 C77.1924826 89.87810226 77.18965271 90.73667328 77.18673706 91.6212616 C77.1755807 94.35181875 77.15048459 97.0820427 77.125 99.8125 C77.11496432 101.66861504 77.1058395 103.52473524 77.09765625 105.38085938 C77.07565626 109.92070046 77.04115781 114.46029381 77 119 C70.23609887 118.20375583 64.87326826 116.09657747 58.6875 113.375 C57.21506836 112.75431641 57.21506836 112.75431641 55.71289062 112.12109375 C46.59135895 108.14891119 38.73542264 102.85861322 31.375 96.1875 C30.53710938 95.43855469 29.69921875 94.68960938 28.8359375 93.91796875 C27 92 27 92 27 90 C30.465 89.505 30.465 89.505 34 89 C33.2265625 88.443125 32.453125 87.88625 31.65625 87.3125 C19.96971847 78.75009076 6.67492239 67.69968954 3 53 C5.97 53.66 8.94 54.32 12 55 C11.55269531 54.42894531 11.10539062 53.85789062 10.64453125 53.26953125 C1.00684387 40.34393346 -3.24484053 25.08716987 -2 9 C-1.48276639 5.93226964 -0.79061141 3.01420599 0 0 Z " fill="#0061EB" transform="translate(328,218)"/>
<path d="M0 0 C6.09009124 0.30479075 9.0568714 2.21405405 13.125 6.50390625 C13.67559082 7.06061508 14.22618164 7.61732391 14.79345703 8.19090271 C16.54354761 9.96780349 18.2714509 11.76466409 20 13.5625 C21.16011213 14.7441617 22.32155975 15.92451383 23.484375 17.10351562 C29.18311686 22.90665687 34.73540675 28.79726993 40 35 C41.17462375 36.35517082 42.3504271 37.70932 43.52734375 39.0625 C44.66426136 40.37482775 45.80098098 41.68732705 46.9375 43 C47.52595703 43.67933594 48.11441406 44.35867188 48.72070312 45.05859375 C50.14731355 46.70557489 51.57368301 48.35276474 53 50 C52.505 50.99 52.505 50.99 52 52 C47.61502873 49.25823563 44.15987357 46.35801131 40.55078125 42.60546875 C39.5269835 41.55635678 38.50288512 40.5075381 37.47851562 39.45898438 C35.89950829 37.83071689 34.32393123 36.19942193 32.75415039 34.56225586 C26.03427854 27.57337732 19.53850378 21.78035037 11 17 C10.37601318 16.63946533 9.75202637 16.27893066 9.10913086 15.9074707 C7.69064693 15.10117228 6.25269024 14.32935454 4.8125 13.5625 C2.4303125 12.2940625 2.4303125 12.2940625 0 11 C0 7.37 0 3.74 0 0 Z " fill="#0061E9" transform="translate(429,333)"/>
</svg>
