<?xml version="1.0" standalone="no"?>
<!DOCTYPE svg PUBLIC "-//W3C//DTD SVG 20010904//EN"
 "http://www.w3.org/TR/2001/REC-SVG-20010904/DTD/svg10.dtd">
<svg version="1.0" xmlns="http://www.w3.org/2000/svg"
 width="591.000000pt" height="422.000000pt" viewBox="0 0 591.000000 422.000000"
 preserveAspectRatio="xMidYMid meet">
<metadata>
Created by potrace 1.16, written by Peter Selinger 2001-2019
</metadata>
<g transform="translate(0.000000,422.000000) scale(0.100000,-0.100000)"
fill="#000000" stroke="none">
<path d="M0 2110 l0 -2110 2955 0 2955 0 0 2110 0 2110 -2955 0 -2955 0 0
-2110z m530 660 l0 -30 -65 0 -65 0 2 -322 3 -323 63 -3 c62 -3 63 -3 60 -30
l-3 -27 -90 0 -90 0 -3 383 -2 382 95 0 95 0 0 -30z m3470 -355 l0 -386 -92 3
-93 3 -3 28 -3 27 65 0 66 0 0 325 0 324 -62 3 c-60 3 -63 4 -66 31 l-3 27 95
0 96 0 0 -385z m-3008 165 c36 -11 88 -60 88 -85 0 -15 -63 -30 -68 -15 -8 23
-35 40 -65 40 -43 0 -59 -13 -55 -41 2 -20 14 -27 63 -42 85 -26 105 -38 121
-69 43 -83 -20 -158 -133 -158 -59 0 -109 28 -128 73 -13 30 -12 32 8 39 39
11 52 8 62 -14 20 -45 102 -49 129 -6 16 26 -9 46 -79 64 -75 20 -101 38 -115
79 -19 56 16 116 77 135 39 11 52 11 95 0z m553 -19 c28 -16 75 -74 75 -92 0
-4 -13 -10 -30 -14 -26 -6 -35 -1 -64 29 -26 28 -41 36 -68 36 -90 0 -137
-121 -81 -207 34 -52 131 -51 155 2 9 20 18 25 50 25 44 0 47 -10 18 -58 -33
-54 -75 -74 -151 -70 -70 4 -106 23 -141 76 -23 36 -32 119 -18 170 29 111
155 162 255 103z m1887 19 c37 -11 88 -60 88 -85 0 -7 -12 -15 -27 -18 -22 -5
-32 0 -46 19 -34 44 -125 27 -115 -23 2 -13 27 -26 83 -45 90 -30 115 -53 115
-107 0 -69 -53 -111 -140 -111 -28 0 -64 7 -80 15 -27 14 -60 60 -60 84 0 15
63 26 68 11 17 -49 94 -67 128 -29 27 30 9 50 -71 76 -90 30 -115 54 -115 109
0 50 23 83 71 100 43 16 56 16 101 4z m-1362 -30 l0 -29 -82 -3 -83 -3 -3 -42
-3 -43 75 0 76 0 0 -30 0 -30 -75 0 -75 0 0 -45 0 -45 85 0 85 0 0 -35 0 -35
-120 0 -120 0 0 185 0 185 120 0 120 0 0 -30z m361 -86 l74 -117 3 117 3 116
34 0 35 0 0 -185 0 -185 -34 0 c-31 0 -38 6 -76 68 -24 37 -57 89 -74 116
l-31 49 -5 -114 -5 -114 -35 0 -35 0 -3 183 -2 182 38 0 c39 0 40 0 113 -116z
m619 86 l0 -29 -82 -3 -83 -3 -3 -42 -3 -43 75 0 76 0 0 -30 0 -29 -72 -3 -73
-3 -3 -42 -3 -43 85 0 86 0 0 -35 0 -35 -120 0 -120 0 0 185 0 185 120 0 120
0 0 -30z m-1046 -714 c45 -19 74 -59 82 -113 9 -59 -8 -111 -46 -148 -29 -28
-38 -30 -116 -34 l-84 -3 0 156 0 156 65 0 c36 0 80 -6 99 -14z m576 -78 c18
-51 43 -121 56 -155 l23 -63 -23 0 c-17 0 -25 8 -32 33 -8 25 -17 34 -45 41
-20 5 -52 6 -72 2 -29 -5 -38 -13 -47 -41 -8 -24 -18 -35 -31 -35 -10 0 -19 3
-19 8 0 4 23 68 50 142 28 74 52 141 55 148 2 6 15 12 28 12 21 0 28 -11 57
-92z m423 72 c48 -38 45 -111 -5 -151 -20 -15 -20 -16 11 -77 l31 -62 -23 0
c-19 0 -29 12 -52 60 -28 58 -30 60 -67 60 l-38 0 0 -60 c0 -53 -2 -60 -20
-60 -19 0 -20 7 -20 155 l0 155 79 0 c64 0 83 -4 104 -20z m392 -5 c33 -32 34
-87 3 -109 l-22 -15 27 -21 c36 -29 37 -81 2 -115 -22 -23 -32 -25 -110 -25
l-85 0 0 155 0 155 80 0 c73 0 83 -3 105 -25z m245 -130 l0 -155 -25 0 -25 0
0 148 c0 82 3 152 7 155 3 4 15 7 25 7 17 0 18 -11 18 -155z m378 138 c-2 -13
-15 -19 -46 -21 l-42 -3 0 -135 0 -134 -25 0 -25 0 0 134 0 135 -42 3 c-31 2
-44 8 -46 21 -3 15 7 17 113 17 106 0 116 -2 113 -17z m326 7 c33 -12 61 -69
52 -104 -3 -14 -18 -36 -32 -49 l-26 -24 31 -61 c29 -57 29 -60 11 -65 -23 -6
-28 1 -60 71 -22 50 -25 52 -62 52 l-38 0 0 -60 c0 -53 -2 -60 -20 -60 -19 0
-20 7 -20 155 l0 155 69 0 c38 0 81 -4 95 -10z m394 -83 c18 -50 44 -120 57
-154 l24 -63 -22 0 c-17 0 -26 9 -35 34 -14 38 -37 46 -107 38 -40 -4 -45 -8
-55 -38 -8 -23 -18 -34 -31 -34 -10 0 -19 4 -19 8 0 7 21 69 86 245 19 53 22
57 47 57 19 0 27 -14 55 -93z m448 59 c38 -38 42 -53 17 -58 -11 -3 -29 8 -44
26 -22 25 -34 31 -69 31 -35 0 -47 -6 -71 -33 -25 -28 -29 -40 -29 -90 0 -60
15 -90 57 -111 53 -27 125 2 135 53 5 23 2 25 -41 28 -34 2 -47 7 -49 21 -3
15 5 17 62 17 l66 0 0 -80 c0 -64 -3 -80 -15 -80 -8 0 -15 7 -15 15 0 19 -9
19 -31 -1 -10 -9 -35 -18 -57 -21 -114 -15 -195 114 -144 230 27 61 69 87 141
87 47 0 57 -4 87 -34z m404 14 c0 -18 -7 -20 -76 -20 l-75 0 3 -47 3 -48 65
-1 c51 -1 66 -5 68 -17 3 -13 -9 -17 -65 -19 l-68 -3 -3 -52 -3 -53 76 0 c67
0 76 -2 73 -17 -2 -10 -11 -18 -21 -17 -9 0 -51 1 -92 2 l-75 2 0 155 0 155
95 0 c88 0 95 -1 95 -20z"/>
<path d="M1880 1690 l0 -120 28 0 c104 0 163 72 132 164 -17 52 -53 76 -111
76 l-49 0 0 -120z"/>
</g>
</svg>
